# xmcd
#
# Track frame offsets: 
#        182
#        15275
#        29522
#        45837
#        55467
#        69650
#        86910
#        102515
#        111677
#        125387
#        135330
#        149327
#        162042
#        171855
#        183662
#        196707
#        216287
#        226105
#        238325
#        254490
#        268902
#        284895
#        297045
#
# Disc length: 4096 seconds
#
# Revision: 1
# Processed by: cddbd v1.5.2PL0 Copyright (c) Steve Scherf et al.
# Submitted via: ExactAudioCopyFreeDBPlugin 1.0
#
DISCID=620ffe17
DTITLE=Kapitan Kid - Krinolina
DYEAR=1994
DGENRE=Country
TTITLE0=Krinolina
TTITLE1=Jenofefa
TTITLE2=Slaboch Ben
TTITLE3=Alabama
TTITLE4=Zrezavely ostruhy
TTITLE5=Ten zatracenej pistolnik
TTITLE6=Vitr od Jihu
TTITLE7=Ze mas modry oci
TTITLE8=Bila bonanza
TTITLE9=Nejbohatsi chudej
TTITLE10=Chajda halabala sroubena
TTITLE11=Mala Jane
TTITLE12=Milej pane Novaku
TTITLE13=Pisen proti Trampingu
TTITLE14=Jmeli
TTITLE15=Majoneza
TTITLE16=Kapelo hraj
TTITLE17=Ze nejsi chic
TTITLE18=Ctyri zpusoby
TTITLE19=Rano
TTITLE20=Sanson
TTITLE21=Sedm statecnych
TTITLE22=No to se vi
EXTD=
EXTT0=
EXTT1=
EXTT2=
EXTT3=
EXTT4=
EXTT5=
EXTT6=
EXTT7=
EXTT8=
EXTT9=
EXTT10=
EXTT11=
EXTT12=
EXTT13=
EXTT14=
EXTT15=
EXTT16=
EXTT17=
EXTT18=
EXTT19=
EXTT20=
EXTT21=
EXTT22=
PLAYORDER=
